# xmcd
#
# Track frame offsets:
#	150
#	17933
#	36843
#	48168
#	60605
#	76895
#	92043
#	107395
#	117390
#	130173
#
# Disc length: 1931 seconds
#
# Revision: 1
# Processed by: cddbd v1.4b42PL1 Copyright (c) Steve Scherf et al.
# Submitted via: audiograbber 1.80
#
DISCID=7807890a
DTITLE=White River - Rodeo Preacher
DYEAR=1900
DGENRE=
TTITLE0=Pardon Me
TTITLE1=Rodeo Preacher
TTITLE2=Let's Get The Devil Outta' Here
TTITLE3=Way Deep Down
TTITLE4=Who's Gonna Take Their Place?
TTITLE5=I Like My Gospel Country
TTITLE6=He Is My Everything
TTITLE7=Can't Help Myself
TTITLE8=The Other Thief
TTITLE9=Goin' Away Party
EXTD=
EXTT0=J.B. Haynes/ Gene Reasoner
EXTT1=J.B. Haynes
EXTT2=J.B. Haynes
EXTT3=Max D. Barnes/ Max T. Barnes
EXTT4=J.B. Haynes/ Rick Hargrove
EXTT5=J.B. Haynes
EXTT6=Dallas Frazier
EXTT7=J.B. Haynes/ Rick Hargrove
EXTT8=J.B. Haynes/ Rick Hargrove
EXTT9=J.B. Haynes
PLAYORDER=
